<svg width="71" height="61" viewBox="0 0 71 61" fill="none" xmlns="http://www.w3.org/2000/svg">
<path d="M35.5 59.5C54.033 59.5 69.5 46.7414 69.5 30.5C69.5 14.2586 54.033 1.5 35.5 1.5C16.967 1.5 1.5 14.2586 1.5 30.5C1.5 46.7414 16.967 59.5 35.5 59.5Z" fill="white" stroke="#3563E9" stroke-width="3"/>
<path d="M38.9167 19.8274V30.6157H32.735V20.2887C32.735 18.5143 31.7665 17.4142 29.809 17.4142C27.8515 17.4142 26.6151 18.6385 26.6151 20.7146V30.6157H20.4334V20.2887C20.4334 18.5143 19.465 17.4142 17.5074 17.4142C15.5499 17.4142 14.3135 18.6385 14.3135 20.7146V30.6157H8.13184V13.0492H14.3135V14.6639C14.9544 13.9505 15.7889 13.3856 16.7471 13.02C17.7032 12.6545 18.752 12.4998 19.7946 12.5701C20.8394 12.523 21.882 12.7111 22.8175 13.1155C23.753 13.5199 24.5504 14.1269 25.1315 14.8768C25.8115 14.0932 26.7099 13.4707 27.7443 13.0674C28.7767 12.6639 29.9141 12.4929 31.0453 12.5701C35.8671 12.5701 38.9167 15.4446 38.9167 19.8274Z" fill="#3563E9"/>
<path d="M32.9953 33.3982L32.7342 22.8032L38.5257 22.6974L38.7755 32.8394C38.8185 34.582 39.7524 35.6458 41.5864 35.6123C43.4203 35.5788 44.549 34.3552 44.4988 32.3164L44.2592 22.5927L50.0507 22.4869L50.3005 32.6288C50.3435 34.3714 51.2774 35.4353 53.1114 35.4018C54.9453 35.3683 56.074 34.1447 56.0238 32.1059L55.7842 22.3821L61.5757 22.2764L62.0007 39.5281L56.2092 39.6339L56.1702 38.0481C55.587 38.7596 54.8189 39.3288 53.93 39.7041C53.0431 40.0795 52.0642 40.2494 51.0857 40.1982C50.1081 40.2623 49.1267 40.0954 48.2405 39.7143C47.3543 39.3332 46.5925 38.7507 46.03 38.0242C45.4119 38.8053 44.5852 39.432 43.6259 39.8458C42.6685 40.2598 41.607 40.4472 40.5453 40.3908C36.0279 40.4733 33.1013 37.7025 32.9953 33.3982Z" fill="#3563E9"/>
</svg>
